<?xml version="1.0" encoding="iso-8859-1"?>
<!-- Generator: Adobe Illustrator 24.0.1, SVG Export Plug-In . SVG Version: 6.00 Build 0)  -->
<svg version="1.1" id="&#x56FE;&#x5C42;_1" xmlns="http://www.w3.org/2000/svg" xmlns:xlink="http://www.w3.org/1999/xlink" x="0px"
	 y="0px" viewBox="0 0 739 204" style="enable-background:new 0 0 739 204;" xml:space="preserve">
<g>
	<g>
		<path style="fill:#009A4C;" d="M88.172,0.538C76.045,8.749,66.47,16.469,58.897,26.342C47.814,40.79,41.914,57.013,41.805,75.27
			c-0.148,24.797-0.127,49.598-0.632,74.389c-0.187,9.154,4.125,14.163,12.4,16.13c4.404,1.047,9.078,1.408,13.621,1.356
			c19.307-0.222,22.344-3.351,22.55-22.427c0.046-4.242-0.139-8.5,0.179-12.721c0.867-11.537,8.471-19.727,18.703-20.435
			c10.78-0.747,20.869,6.548,21.626,18.261c1.113,17.208,1.287,34.623-0.083,51.796c-1.076,13.483-12.161,22.005-25.758,22.126
			c-25.219,0.224-50.447,0.338-75.661-0.078c-16.531-0.273-26.679-8.861-26.945-24.975C1.22,143.17-1.064,107.488,3.2,72.123
			C8.534,27.889,42.052-0.49,88.172,0.538z"/>
		<path style="fill:#8FC32F;" d="M134.098,203.434c11.88-9.144,22.542-16.937,30.169-28.002
			c9.927-14.401,15.324-30.175,15.489-47.584c0.232-24.463-0.145-48.934,0.32-73.391c0.177-9.278-4.261-14.11-12.436-16.046
			c-4.705-1.114-9.726-1.353-14.592-1.269c-18.287,0.315-21.538,3.656-21.742,21.494c-0.056,4.892,0.115,9.805-0.277,14.671
			c-0.856,10.638-7.968,18.23-17.593,19.187c-10.092,1.004-19.5-4.339-21.411-14.623c-3.586-19.293-3.668-39.014-0.037-58.268
			C94.338,7.148,104.299,0.434,117.083,0.32c24.884-0.222,49.776-0.314,74.656,0.066c15.837,0.242,26.76,7.897,27.143,21.4
			c1.092,38.414,4.214,77.111-1.798,115.217c-6.377,40.428-38.944,67.045-77.616,66.817
			C138.311,203.814,137.154,203.66,134.098,203.434z"/>
	</g>
	<g>
		<path style="fill:#332C2B;" d="M321.519,93.866l-2.776-10.985l-7.967,3.38V45.943h8.571V33.147h-30.902v2.414
			c-3.139-4.346-8.812-10.261-13.278-14.364l-9.657,7.122c4.829,4.828,10.744,11.709,13.399,16.175l9.537-7.363v8.813h9.657v45.629
			l-9.778,3.742l0.604-2.173l-10.864-6.76c-4.104,13.52-9.778,28.488-13.882,37.662l11.95,6.639
			c3.984-10.019,8.088-22.09,11.468-33.195l4.346,10.984C300.877,104.247,311.621,99.057,321.519,93.866z"/>
		<path style="fill:#332C2B;" d="M277.821,77.932l9.416-8.57c-3.501-4.104-10.623-10.502-16.055-14.727l-8.933,7.604
			C267.681,66.947,274.562,73.707,277.821,77.932z"/>
		<path style="fill:#332C2B;" d="M344.092,43.046l-7.967,5.553c3.863,3.742,8.329,9.054,10.381,12.313l8.45-6.035
			C352.783,51.496,348.076,46.547,344.092,43.046z"/>
		<rect x="316.449" y="98.694" style="fill:#332C2B;" width="41.042" height="11.95"/>
		<path style="fill:#332C2B;" d="M336.004,40.873h20.28c-0.604,14.969-1.569,20.883-2.897,22.573
			c-0.845,1.087-1.69,1.328-3.259,1.328c-1.569,0-4.587-0.121-8.208-0.362c1.569,2.776,2.776,7.242,3.018,10.381
			c4.708,0.121,9.174,0.121,11.951-0.241c3.018-0.482,5.553-1.328,7.605-3.983c2.655-3.259,3.742-12.434,4.708-35.369
			c0.121-1.448,0.121-4.707,0.121-4.707h-5.553h-17.503c1.811-3.019,3.742-6.398,5.553-9.898l-14.124-1.569
			c-0.966,3.38-2.535,7.604-4.225,11.468H323.45v59.752h38.024c-0.845,19.797-1.69,27.522-3.38,29.695
			c-1.086,1.087-2.052,1.449-3.983,1.449c-2.052,0-6.519-0.121-11.468-0.483c1.811,2.897,3.139,7.604,3.38,10.864
			c5.673,0.121,11.347,0.241,14.485-0.241c3.742-0.362,6.519-1.449,8.933-4.346c3.138-3.863,4.345-14.365,5.311-42.25
			c0-1.568,0-5.069,0-5.069h-38.749V40.873z"/>
		<path style="fill:#332C2B;" d="M498.356,115.231c-7.967,1.087-20.159,1.812-27.401,1.812c-9.174,0-16.658-1.087-22.694-4.708
			c-2.897-1.69-5.07-3.38-7.122-4.346V58.738h-21.125v13.158h8.088v37.541c-3.983,2.173-8.088,5.433-11.83,9.295l8.933,13.641
			c3.621-6.035,8.329-13.157,11.468-13.157c2.293,0,5.794,2.896,10.019,5.553c6.639,3.983,13.882,5.794,24.142,5.794
			c7.484,0,18.349-0.362,24.263-0.845C495.218,126.096,497.028,119.095,498.356,115.231z"/>
		<path style="fill:#332C2B;" d="M442.949,63.325c1.449,3.26,3.5,9.295,4.225,11.83c1.086-1.086,5.432-1.811,9.777-1.811h9.174
			v10.864H444.88v12.313h21.246v16.899h12.554V96.521h17.262V84.209H478.68V73.345h15.089v-11.95H478.68V48.599h-12.554v12.796
			h-8.208c2.414-5.07,4.708-10.864,6.881-16.9h31.506V32.423h-27.522c1.207-3.741,2.173-7.483,3.018-11.226L458.4,18.662
			c-0.604,4.587-1.569,9.295-2.656,13.761h-12.192v12.071h8.933c-1.569,5.07-3.018,9.054-3.742,10.864
			C446.812,59.704,445.122,62.602,442.949,63.325z"/>
		<path style="fill:#332C2B;" d="M441.259,46.063c-1.328-6.639-4.587-16.537-7.605-24.263l-11.951,3.621
			c2.776,7.726,5.915,17.986,7.122,24.746L441.259,46.063z"/>
		<path style="fill:#332C2B;" d="M390.681,57.893v7.967h6.156v12.796h-11.105v12.191h11.105v18.47c0,6.397-3.38,10.984-6.036,13.036
			c2.173,1.932,5.674,6.64,7.001,9.295c1.932-2.534,5.312-5.553,24.505-19.797c-1.328-2.534-3.139-7.604-3.984-10.984l-8.691,6.277
			V90.848h12.071V78.656h-12.071V65.86h8.812V53.669h-24.867c2.052-3.139,3.984-6.64,5.794-10.382H421.1V30.853h-16.658
			c0.966-2.776,1.811-5.432,2.535-8.208l-12.071-3.38c-2.535,10.623-7.001,21.125-12.675,28.005
			c2.052,3.139,5.432,10.141,6.398,13.158L390.681,57.893z"/>
		<path style="fill:#332C2B;" d="M503.42,65.981c2.656,2.655,5.794,7.363,7.484,10.622c6.036-3.38,12.434-8.329,17.986-13.882
			v10.744h13.399V60.429c4.587,3.621,9.295,7.604,11.951,10.14l7.605-10.02c-2.173-1.569-8.812-5.553-14.365-8.69h17.745V40.511
			h-22.936V19.024H528.89v21.486h-12.434l10.02-4.346c-0.966-4.346-4.104-10.502-7.243-15.089l-10.381,4.346
			c2.897,4.708,5.794,10.985,6.639,15.089h-9.537v11.348h17.866C518.268,57.772,510.542,63.084,503.42,65.981z"/>
		<path style="fill:#332C2B;" d="M619.304,120.06c-9.174-5.07-16.417-12.675-22.09-22.091c5.794-11.95,9.416-26.194,11.709-43.215
			h7.605V41.356h-32.351c1.449-6.519,2.776-13.158,3.742-20.039l-13.278-1.931c-2.656,21.728-8.088,42.369-17.745,54.924
			c2.897,2.052,8.329,6.76,10.381,9.174c2.293-3.259,4.466-6.881,6.397-10.864c2.293,9.175,5.07,17.745,8.571,25.35
			c-6.277,10.14-15.089,17.745-27.281,23.298c2.415,2.776,6.277,8.812,7.484,11.709c11.347-5.794,20.159-13.037,26.919-22.09
			c5.432,8.329,12.192,15.33,20.521,20.521C611.94,127.786,616.165,122.596,619.304,120.06z M589.608,82.156
			c-3.259-8.449-5.673-17.623-7.363-27.401h13.158C594.195,65.016,592.385,74.189,589.608,82.156z"/>
		<path style="fill:#332C2B;" d="M554.481,80.708l-2.173,0.483h-15.209l1.931-4.708l-12.795-2.294
			c-0.845,2.294-1.811,4.587-2.897,7.002h-15.331V92.9h9.295c-2.293,4.104-4.708,7.846-6.88,10.984
			c5.553,2.173,11.467,5.07,17.262,8.088c-6.881,4.225-14.968,7.363-23.78,9.295c2.414,2.535,5.19,7.604,6.519,10.864
			c10.864-3.018,20.642-7.363,28.85-13.52c3.5,2.172,6.639,4.345,9.174,6.276l8.571-9.415c-2.414-1.69-5.432-3.501-8.571-5.433
			c6.157-7.001,10.864-15.692,13.882-26.436L554.481,80.708z M537.581,104.126l-9.898-4.828l3.621-6.397h14.606
			C543.738,97.125,540.841,100.867,537.581,104.126z"/>
		<path style="fill:#332C2B;" d="M564.138,25.301l-12.192-4.828c-1.932,4.587-5.312,11.227-7.967,15.451l9.174,4.104
			C556.292,36.286,560.155,30.733,564.138,25.301z"/>
		<path style="fill:#332C2B;" d="M697.518,52.823l10.14-9.053c-3.742-5.312-12.071-12.555-18.71-17.383l-9.416,8.088
			C686.171,39.787,694.139,47.633,697.518,52.823z"/>
		<path style="fill:#332C2B;" d="M657.804,67.551v-1.087h15.934V53.065h-15.934V36.527c5.553-1.328,10.864-2.896,15.572-4.587
			l-8.088-11.83c-10.019,4.226-25.229,7.847-38.99,9.898c1.569,3.139,3.38,8.088,3.863,11.227c4.346-0.483,9.053-1.207,13.64-1.932
			v13.762h-18.348v13.398h16.417c-4.346,11.709-11.226,24.746-17.986,32.593c2.294,3.621,5.432,9.657,6.76,13.761
			c4.708-6.035,9.294-14.605,13.157-23.9v43.456h14.003v-49.13c2.897,4.708,5.794,9.898,7.363,13.278l8.329-11.347
			C671.203,82.277,661.184,70.689,657.804,67.551z"/>
		<path style="fill:#332C2B;" d="M694.38,84.933l9.898-9.415c-4.104-5.19-12.916-12.554-19.917-17.503l-9.295,8.329
			C682.067,71.654,690.638,79.501,694.38,84.933z"/>
		<polygon style="fill:#332C2B;" points="736.871,85.657 724.92,87.71 724.92,19.024 710.555,19.024 710.555,90.244 671.686,96.884 
			673.979,110.644 710.555,104.247 710.555,132.252 724.92,132.252 724.92,101.833 739.164,99.298 		"/>
		<polygon style="fill:#332C2B;" points="282.827,174.037 272.907,174.037 272.907,166.083 270.238,166.083 270.238,185.074 
			272.907,185.074 272.907,176.109 282.827,176.109 282.827,185.074 285.525,185.074 285.525,166.083 282.827,166.083 		"/>
		<path style="fill:#332C2B;" d="M299.182,165.746c-5.337,0-9.079,3.679-9.079,9.768s3.742,9.897,9.079,9.897
			c5.337,0,9.079-3.809,9.079-9.897S304.519,165.746,299.182,165.746z M299.182,183.312c-3.829,0-6.324-3.058-6.324-7.799
			s2.495-7.669,6.324-7.669c3.829,0,6.323,2.928,6.323,7.669S303.011,183.312,299.182,183.312z"/>
		<path style="fill:#332C2B;" d="M325.428,175.954c0,1.969,0.203,4.119,0.377,6.011h-0.145l-2.292-3.912l-7.774-11.97h-2.727v18.991
			h2.523v-9.976c0-1.994-0.203-4.016-0.319-5.933h0.116l2.292,3.912l7.745,11.996h2.756v-18.991h-2.553V175.954z"/>
		<path style="fill:#332C2B;" d="M341.753,177.224h4.525v4.975c-0.841,0.699-2.32,1.114-3.829,1.114
			c-4.554,0-7.107-3.006-7.107-7.799c0-4.741,2.785-7.669,7.078-7.669c2.118,0,3.51,0.803,4.583,1.787l1.451-1.555
			c-1.218-1.14-3.162-2.331-6.121-2.331c-5.627,0-9.746,3.705-9.746,9.846c0,6.166,4.003,9.819,9.601,9.819
			c2.843,0,5.192-0.933,6.556-2.202v-7.98h-6.991V177.224z"/>
		<polygon style="fill:#332C2B;" points="356.484,166.083 353.815,166.083 353.815,185.074 365.795,185.074 365.795,183.027 
			356.484,183.027 		"/>
		<rect x="369.562" y="166.083" style="fill:#332C2B;" width="2.668" height="18.991"/>
		<path style="fill:#332C2B;" d="M382.439,166.083l-7.193,18.991h2.697l2.06-5.804h7.774l2.031,5.804h2.842l-7.223-18.991H382.439z
			 M387.11,177.379h-6.439l1.044-2.928c0.754-2.15,1.451-4.197,2.118-6.426h0.116c0.696,2.203,1.364,4.275,2.147,6.426
			L387.11,177.379z"/>
		<path style="fill:#332C2B;" d="M408.251,175.954c0,1.969,0.203,4.119,0.377,6.011h-0.145l-2.292-3.912l-7.774-11.97h-2.727v18.991
			h2.523v-9.976c0-1.994-0.203-4.016-0.319-5.933h0.116l2.292,3.912l7.745,11.996h2.756v-18.991h-2.553V175.954z"/>
		<path style="fill:#332C2B;" d="M428.462,166.083h-5.308v18.991h5.424c6.411,0,9.892-3.55,9.892-9.561
			C438.47,169.451,434.989,166.083,428.462,166.083z M428.23,183.105h-2.408v-15.08h2.408c5.018,0,7.484,2.669,7.484,7.488
			C435.714,180.307,433.248,183.105,428.23,183.105z"/>
		<rect x="443.105" y="166.083" style="fill:#332C2B;" width="2.668" height="18.991"/>
		<path style="fill:#332C2B;" d="M459.521,177.224h4.525v4.975c-0.841,0.699-2.32,1.114-3.829,1.114
			c-4.554,0-7.107-3.006-7.107-7.799c0-4.741,2.785-7.669,7.078-7.669c2.118,0,3.51,0.803,4.583,1.787l1.451-1.555
			c-1.218-1.14-3.162-2.331-6.121-2.331c-5.627,0-9.746,3.705-9.746,9.846c0,6.166,4.003,9.819,9.601,9.819
			c2.843,0,5.192-0.933,6.556-2.202v-7.98h-6.991V177.224z"/>
		<rect x="471.583" y="166.083" style="fill:#332C2B;" width="2.668" height="18.991"/>
		<polygon style="fill:#332C2B;" points="493.626,166.083 478.05,166.083 478.05,168.103 484.489,168.103 484.489,185.074 
			487.187,185.074 487.187,168.103 493.626,168.103 		"/>
		<path style="fill:#332C2B;" d="M500.526,166.083l-7.193,18.991h2.697l2.06-5.804h7.774l2.031,5.804h2.842l-7.223-18.991H500.526z
			 M505.197,177.379h-6.439l1.044-2.928c0.754-2.15,1.451-4.197,2.118-6.426h0.116c0.696,2.203,1.364,4.275,2.147,6.426
			L505.197,177.379z"/>
		<polygon style="fill:#332C2B;" points="516.446,166.083 513.778,166.083 513.778,185.074 525.758,185.074 525.758,183.027 
			516.446,183.027 		"/>
		<polygon style="fill:#332C2B;" points="533.991,168.103 540.43,168.103 540.43,185.074 543.128,185.074 543.128,168.103 
			549.567,168.103 549.567,166.083 533.991,166.083 		"/>
		<polygon style="fill:#332C2B;" points="556.06,176.109 564.124,176.109 564.124,174.062 556.06,174.062 556.06,168.103 
			565.633,168.103 565.633,166.083 553.392,166.083 553.392,185.074 565.952,185.074 565.952,183.027 556.06,183.027 		"/>
		<path style="fill:#332C2B;" d="M578.595,183.312c-4.061,0-6.614-3.006-6.614-7.799c0-4.741,2.698-7.669,6.701-7.669
			c1.828,0,3.22,0.726,4.351,1.787l1.45-1.555c-1.218-1.217-3.249-2.331-5.83-2.331c-5.396,0-9.427,3.705-9.427,9.846
			c0,6.166,3.945,9.819,9.253,9.819c2.756,0,4.844-0.984,6.527-2.721l-1.479-1.528C582.163,182.509,580.625,183.312,578.595,183.312
			z"/>
		<polygon style="fill:#332C2B;" points="601.563,174.037 591.643,174.037 591.643,166.083 588.974,166.083 588.974,185.074 
			591.643,185.074 591.643,176.109 601.563,176.109 601.563,185.074 604.261,185.074 604.261,166.083 601.563,166.083 		"/>
		<path style="fill:#332C2B;" d="M622.646,175.954c0,1.969,0.203,4.119,0.377,6.011h-0.145l-2.292-3.912l-7.774-11.97h-2.727v18.991
			h2.523v-9.976c0-1.994-0.203-4.016-0.319-5.933h0.116l2.292,3.912l7.745,11.996h2.756v-18.991h-2.553V175.954z"/>
		<path style="fill:#332C2B;" d="M638.885,165.746c-5.337,0-9.079,3.679-9.079,9.768s3.742,9.897,9.079,9.897
			c5.337,0,9.079-3.809,9.079-9.897S644.222,165.746,638.885,165.746z M638.885,183.312c-3.829,0-6.324-3.058-6.324-7.799
			s2.495-7.669,6.324-7.669c3.829,0,6.323,2.928,6.323,7.669S642.713,183.312,638.885,183.312z"/>
		<polygon style="fill:#332C2B;" points="655.239,166.083 652.57,166.083 652.57,185.074 664.55,185.074 664.55,183.027 
			655.239,183.027 		"/>
		<path style="fill:#332C2B;" d="M675.309,165.746c-5.337,0-9.079,3.679-9.079,9.768s3.742,9.897,9.079,9.897
			c5.337,0,9.079-3.809,9.079-9.897S680.645,165.746,675.309,165.746z M675.309,183.312c-3.829,0-6.324-3.058-6.324-7.799
			s2.495-7.669,6.324-7.669c3.829,0,6.323,2.928,6.323,7.669S679.137,183.312,675.309,183.312z"/>
		<path style="fill:#332C2B;" d="M696.914,177.224h4.525v4.975c-0.841,0.699-2.32,1.114-3.829,1.114
			c-4.554,0-7.107-3.006-7.107-7.799c0-4.741,2.785-7.669,7.078-7.669c2.118,0,3.51,0.803,4.583,1.787l1.451-1.555
			c-1.218-1.14-3.162-2.331-6.121-2.331c-5.627,0-9.746,3.705-9.746,9.846c0,6.166,4.003,9.819,9.601,9.819
			c2.843,0,5.192-0.933,6.556-2.202v-7.98h-6.991V177.224z"/>
		<path style="fill:#332C2B;" d="M715.966,171.446c-0.667,1.398-1.393,2.746-2.146,4.171h-0.116
			c-0.754-1.425-1.392-2.772-2.088-4.171l-2.756-5.363h-2.842l6.381,11.633v7.358h2.668v-7.358l6.411-11.633h-2.785L715.966,171.446
			z"/>
	</g>
</g>
</svg>
